<svg xmlns="http://www.w3.org/2000/svg" version="1.1" xmlns:xlink="http://www.w3.org/1999/xlink" viewBox="0 0 200 200"><rect width="200" height="200" fill="url('#gradient')"></rect><defs><linearGradient id="gradient" gradientTransform="rotate(0 0.5 0.5)"><stop offset="0%" stop-color="#2fa98e"></stop><stop offset="100%" stop-color="#2fa98e"></stop></linearGradient></defs><g><g fill="#fafafa" transform="matrix(2.044283121597096,0,0,2.044283121597096,21.061725003663078,110.57994560754018)" stroke="#ececec" stroke-width="0.15"><path d="M10.73-5.36L10.73-5.21Q10.73-2.74 9.62-1.27Q8.52 0.20 6.63 0.20L6.63 0.20Q5.18 0.20 4.24-0.87L4.24-0.87L4.24 4.06L0.95 4.06L0.95-10.57L4.02-10.57L4.12-9.59Q5.07-10.76 6.61-10.76L6.61-10.76Q8.56-10.76 9.65-9.32Q10.73-7.88 10.73-5.36L10.73-5.36ZM7.44-5.06L7.44-5.41Q7.44-8.22 5.80-8.22L5.80-8.22Q4.63-8.22 4.24-7.38L4.24-7.38L4.24-3.22Q4.67-2.34 5.82-2.34L5.82-2.34Q7.39-2.34 7.44-5.06L7.44-5.06ZM18.63-10.64L18.57-7.59L17.49-7.67Q15.94-7.67 15.50-6.69L15.50-6.69L15.50 0L12.21 0L12.21-10.57L15.29-10.57L15.40-9.21Q16.23-10.76 17.71-10.76L17.71-10.76Q18.24-10.76 18.63-10.64L18.63-10.64ZM28.71 0L25.42 0Q25.24-0.32 25.11-0.95L25.11-0.95Q24.20 0.20 22.57 0.20L22.57 0.20Q21.07 0.20 20.03-0.71Q18.98-1.61 18.98-2.98L18.98-2.98Q18.98-4.70 20.25-5.58Q21.52-6.46 23.95-6.46L23.95-6.46L24.96-6.46L24.96-7.01Q24.96-8.47 23.70-8.47L23.70-8.47Q22.53-8.47 22.53-7.31L22.53-7.31L19.24-7.31Q19.24-8.85 20.54-9.80Q21.85-10.76 23.87-10.76Q25.89-10.76 27.06-9.78Q28.23-8.79 28.26-7.07L28.26-7.07L28.26-2.39Q28.28-0.94 28.71-0.17L28.71-0.17L28.71 0ZM23.36-2.15L23.36-2.15Q23.97-2.15 24.38-2.41Q24.79-2.68 24.96-3.01L24.96-3.01L24.96-4.70L24.00-4.70Q22.29-4.70 22.29-3.15L22.29-3.15Q22.29-2.71 22.59-2.43Q22.89-2.15 23.36-2.15ZM32.88-10.57L34.37-7.66L35.90-10.57L39.32-10.57L36.53-5.42L39.45 0L36.02 0L34.36-3.13L32.72 0L29.27 0L32.20-5.42L29.42-10.57L32.88-10.57ZM47.86-3.78L47.86-3.78Q47.86-4.53 47.33-4.95Q46.80-5.37 45.46-5.82Q44.12-6.27 43.27-6.69L43.27-6.69Q40.51-8.05 40.51-10.42L40.51-10.42Q40.51-11.60 41.20-12.50Q41.88-13.41 43.14-13.91Q44.40-14.41 45.98-14.41L45.98-14.41Q47.51-14.41 48.73-13.87Q49.94-13.32 50.62-12.31Q51.29-11.30 51.29-10L51.29-10L47.87-10Q47.87-10.87 47.34-11.35Q46.81-11.83 45.90-11.83L45.90-11.83Q44.98-11.83 44.45-11.42Q43.92-11.02 43.92-10.39L43.92-10.39Q43.92-9.84 44.50-9.40Q45.09-8.96 46.56-8.48Q48.04-8.01 48.98-7.46L48.98-7.46Q51.29-6.13 51.29-3.80L51.29-3.80Q51.29-1.93 49.88-0.87Q48.48 0.20 46.03 0.20L46.03 0.20Q44.30 0.20 42.90-0.42Q41.49-1.04 40.79-2.12Q40.08-3.20 40.08-4.61L40.08-4.61L43.52-4.61Q43.52-3.47 44.11-2.92Q44.70-2.38 46.03-2.38L46.03-2.38Q46.88-2.38 47.37-2.75Q47.86-3.12 47.86-3.78ZM61.87-8.57L61.87-6.03L56.47-6.03L56.47-2.64L62.84-2.64L62.84 0L53.05 0L53.05-14.22L62.86-14.22L62.86-11.57L56.47-11.57L56.47-8.57L61.87-8.57ZM76.28-7.47L76.28-6.82Q76.28-4.74 75.51-3.13Q74.74-1.53 73.32-0.67Q71.89 0.20 70.08 0.20Q68.26 0.20 66.86-0.64Q65.45-1.47 64.66-3.03Q63.88-4.58 63.84-6.59L63.84-6.59L63.84-7.39Q63.84-9.48 64.60-11.08Q65.37-12.68 66.80-13.54Q68.23-14.41 70.06-14.41L70.06-14.41Q71.87-14.41 73.28-13.55Q74.70-12.70 75.48-11.11Q76.27-9.52 76.28-7.47L76.28-7.47ZM72.79-6.76L72.79-7.41Q72.79-9.53 72.08-10.63Q71.38-11.73 70.06-11.73L70.06-11.73Q67.48-11.73 67.33-7.86L67.33-7.86L67.32-6.82Q67.32-4.73 68.02-3.60Q68.71-2.48 70.08-2.48L70.08-2.48Q71.38-2.48 72.08-3.58Q72.78-4.69 72.79-6.76L72.79-6.76Z"></path></g></g></svg>